<?xml version="1.0" encoding="utf-8"?>
<!-- Generator: Adobe Illustrator 17.0.0, SVG Export Plug-In . SVG Version: 6.00 Build 0)  -->
<!DOCTYPE svg PUBLIC "-//W3C//DTD SVG 1.1//EN" "http://www.w3.org/Graphics/SVG/1.1/DTD/svg11.dtd">
<svg version="1.1" id="Calque_1" xmlns="http://www.w3.org/2000/svg" xmlns:xlink="http://www.w3.org/1999/xlink" x="0px" y="0px"
	 width="700px" height="700px" viewBox="0 0 700 700" enable-background="new 0 0 700 700" xml:space="preserve">
<g transform="translate(0.000000,700.000000) scale(0.100000,-0.100000)">
	<path fill="#FFFFFF" d="M2322,6372c-6-5-42-94-78-198l-65-190l-95-22c-439-105-822-320-1144-642c-278-277-442-545-558-910
		c-67-210-96-415-96-665c0-198,10-289,50-475c3-14,7-36,10-50c2-14,18-70,35-125c91-295,245-575,442-798l59-68l-87-252
		c-47-139-106-308-130-377c-136-391-141-408-133-429c13-35-9-45,383,171c55,30,172,95,260,143s185,101,215,118c30,16,86,47,123,68
		c38,22,72,39,77,39c4,0,37-13,72-28c302-136,649-210,977-208l166,1l3,28c2,16-2,29-10,31c-7,3-96,7-198,10c-204,5-199,5-405,41
		c-38,6-220,54-280,73c-108,35-247,94-238,102c6,6,236,133,778,430c54,30,213,117,283,156c23,13,46,24,50,24s19-19,34-43
		c49-77,111-130,615-522c225-174,309-280,349-436c62-241-37-497-248-640c-227-154-527-129-742,61c-37,33-70,60-74,60
		c-14,0-32-24-32-41c0-9,25-40,56-68c290-265,740-231,987,74c136,169,176,398,105,610c-37,113-126,247-211,318
		c-47,39-509,401-560,438c-46,34-192,180-205,206c-11,20-6,24,71,66c45,24,98,53,117,64c52,29,100,56,650,358
		c606,334,576,317,672,371c43,24,82,44,87,44c11,0,90-107,114-156c54-106,72-272,42-389c-43-167-168-325-315-398
		c-226-113-488-71-690,109l-64,57l-18-23c-22-28-14-44,49-99c244-215,600-231,860-38c121,90,218,240,248,382c18,88,14,230-10,310
		c-24,83-80,196-120,243l-34,39l27,15c23,14,222,123,377,208c28,15,66,36,85,47s186,102,370,203c520,285,502,273,466,308
		c-20,20,25,42-486-239c-206-113-400-219-430-236c-30-16-142-78-249-137s-198-108-201-109c-13-4-685,531-732,582
		c-52,57-118,160-118,184c0,9-4,18-9,21c-15,10-33,105-36,189c-9,245,147,473,390,573c64,26,81,28,195,29c97,0,137-4,180-19
		c90-30,185-85,246-140l57-52l2-313c2-256,5-315,16-322c19-12,25-11,42,5c15,15,15-12,4,1625l-4,504l51-54c28-30,87-95,131-144
		c44-50,82-92,85-95s43-48,90-100s92-101,100-110c19-20,159-176,183-204c10-11,53-59,95-105c42-47,86-95,97-107
		c19-21,136-151,180-200c12-12,48-53,80-90c33-37,67-74,76-83c8-9,58-63,110-121c51-58,96-107,99-110s41-45,85-95c44-49,82-92,85-95
		s66-72,140-155c247-274,247-275,267-275c7,0,16,8,21,17c5,10,9,494,8,1127c-2,1036-3,1110-19,1120c-12,8-22,8-34,0
		c-17-11-18-72-17-1074l1-1064l-34,40c-19,21-51,57-71,79c-21,22-77,85-127,140c-49,55-92,102-95,105s-43,48-90,100
		s-106,118-131,145c-26,28-62,68-80,89c-19,22-43,49-54,61c-11,11-54,58-95,104s-79,89-85,95c-10,11-158,175-225,249
		c-19,22-44,49-55,61s-54,60-95,106s-86,95-100,110s-53,59-87,97s-74,83-90,100c-15,16-48,52-72,79c-42,48-163,183-209,233
		c-13,14-49,54-80,89c-54,60-83,75-99,50c-4-7-6-350-5-762c3-620,1-747-10-740c-7,4-33,24-58,43c-137,105-351,151-532,115
		c-98-20-239-90-311-154c-172-155-250-373-211-595c36-200,137-348,349-511c50-38,97-74,105-81c8-6,94-74,190-149
		c229-179,234-184,224-194c-7-7-348-195-1254-693c-30-16-86-47-123-68c-38-22-70-39-72-39s-32-16-66-36c-70-41-70-41-94,42
		c-23,77-26,93-26,169c-1,100,15,167,62,264c75,155,235,284,398,321c114,27,254,15,363-31c70-29,180-102,212-139c28-33,60-39,75-13
		c13,24-15,61-92,118c-140,106-242,139-422,139c-117,0-138-2-210-28c-111-38-188-87-270-171c-154-158-214-364-170-580
		c9-41,22-90,30-109c8-20,15-40,15-45c0-7-131-82-605-341c-27-15-93-51-145-80s-115-64-140-77c-25-14-72-40-105-58s-84-47-114-63
		l-54-30l-66,36c-171,92-361,230-492,357l-66,65l54,157c30,87,99,286,153,443s112,326,130,375c17,50,42,122,55,160
		c13,39,44,129,69,200c24,72,80,234,124,360c44,127,94,271,111,320c18,50,43,124,57,165c92,273,506,1468,512,1479c8,14,13,16,87,26
		c130,18,197,23,345,24c91,0,171,1,178,1c16,0,16,45-1,58c-16,13-306,14-412,1c-38-5-91-11-117-14c-27-4-48-5-48-3s27,81,60,175
		c53,155,58,174,44,188C2347,6382,2340,6383,2322,6372z M2064,5653c-47-137-89-259-94-273c-4-14-72-209-150-435
		c-79-225-153-441-166-480c-12-38-37-110-54-160c-33-91-171-492-260-750c-27-77-91-264-143-415c-53-151-136-394-186-540
		s-94-272-97-280c-6-17-32,12-134,146c-209,276-350,604-399,929c-6,39-13,86-16,105s-8,109-9,200c-4,162,3,270,24,380
		c5,30,12,73,16,95c15,101,139,470,174,520c4,6,26,46,50,90c164,307,407,572,715,779c115,77,355,198,497,250c97,36,269,85,300,86
		C2146,5900,2135,5858,2064,5653z M1005,2109c28-26,66-60,85-75c19-16,37-31,40-34c21-25,283-197,354-232l28-15l-33-20
		c-29-17-116-65-504-278c-22-12-92-50-155-85s-134-74-157-87l-42-25l35,104c98,281,209,604,241,700c23,66,41,105,47,101
		S978,2135,1005,2109z"/>
	<path fill="#FFFFFF" d="M2299,4928c-6-12-29-71-49-132c-21-61-73-210-115-331c-114-328-235-675-315-905c-39-113-105-303-147-423
		c-74-214-76-219-57-236c10-10,87-41,169-69c162-55,600-206,626-217c10-3,23,1,33,11c30,29,0,54-110,92c-54,19-222,76-373,128
		s-276,96-278,97c-1,2,42,134,98,293c55,159,119,341,141,404c84,242,79,231,102,224c26-7,194-66,304-106c46-16,90-27,98-24
		c16,6,19,52,4,61c-13,8-350,126-377,132c-13,3-23,9-23,14c0,9,13,46,175,514c48,138,98,284,112,325s29,78,32,83c7,7,124-32,564-187
		c103-36,196-66,206-66c17,0,31,18,31,40c0,5-9,14-20,20c-18,10-210,79-350,127c-25,8-134,46-243,84s-204,69-212,69
		S2305,4940,2299,4928z"/>
</g>
</svg>
